<?xml version="1.0" encoding="UTF-8" standalone="no"?>
<!DOCTYPE svg PUBLIC "-//W3C//DTD SVG 1.0//EN" "http://www.w3.org/TR/2001/PR-SVG-20010719/DTD/svg10.dtd">
<svg width="14cm" height="12cm" viewBox="294 -68 267 236" xmlns="http://www.w3.org/2000/svg" xmlns:xlink="http://www.w3.org/1999/xlink">
  <g>
    <rect style="fill: #ffffff" x="300" y="0" width="260" height="99"/>
    <rect style="fill: none; fill-opacity:0; stroke-width: 2; stroke: #000000" x="300" y="0" width="260" height="99"/>
  </g>
  <g>
    <rect style="fill: #00ff00" x="320" y="20" width="20" height="20"/>
    <rect style="fill: none; fill-opacity:0; stroke-width: 2; stroke: #000000" x="320" y="20" width="20" height="20"/>
  </g>
  <g>
    <rect style="fill: #ffffff" x="360" y="20" width="20" height="20"/>
    <rect style="fill: none; fill-opacity:0; stroke-width: 2; stroke: #000000" x="360" y="20" width="20" height="20"/>
  </g>
  <g>
    <rect style="fill: #00ff00" x="400" y="20" width="20" height="20"/>
    <rect style="fill: none; fill-opacity:0; stroke-width: 2; stroke: #000000" x="400" y="20" width="20" height="20"/>
  </g>
  <g>
    <rect style="fill: #ffffff" x="440" y="20" width="20" height="20"/>
    <rect style="fill: none; fill-opacity:0; stroke-width: 2; stroke: #000000" x="440" y="20" width="20" height="20"/>
  </g>
  <g>
    <rect style="fill: #ffffff" x="480" y="20" width="20" height="20"/>
    <rect style="fill: none; fill-opacity:0; stroke-width: 2; stroke: #000000" x="480" y="20" width="20" height="20"/>
  </g>
  <g>
    <rect style="fill: #ffffff" x="520" y="20" width="20" height="20"/>
    <rect style="fill: none; fill-opacity:0; stroke-width: 2; stroke: #000000" x="520" y="20" width="20" height="20"/>
  </g>
  <g>
    <rect style="fill: #00ff00" x="320" y="60" width="20" height="20"/>
    <rect style="fill: none; fill-opacity:0; stroke-width: 2; stroke: #000000" x="320" y="60" width="20" height="20"/>
  </g>
  <g>
    <rect style="fill: #00ff00" x="360" y="60" width="20" height="20"/>
    <rect style="fill: none; fill-opacity:0; stroke-width: 2; stroke: #000000" x="360" y="60" width="20" height="20"/>
  </g>
  <g>
    <rect style="fill: #00ff00" x="400" y="60" width="20" height="20"/>
    <rect style="fill: none; fill-opacity:0; stroke-width: 2; stroke: #000000" x="400" y="60" width="20" height="20"/>
  </g>
  <g>
    <rect style="fill: #00ff00" x="440" y="60" width="20" height="20"/>
    <rect style="fill: none; fill-opacity:0; stroke-width: 2; stroke: #000000" x="440" y="60" width="20" height="20"/>
  </g>
  <g>
    <rect style="fill: #00ff00" x="480" y="60" width="20" height="20"/>
    <rect style="fill: none; fill-opacity:0; stroke-width: 2; stroke: #000000" x="480" y="60" width="20" height="20"/>
  </g>
  <g>
    <rect style="fill: #00ff00" x="520" y="60" width="20" height="20"/>
    <rect style="fill: none; fill-opacity:0; stroke-width: 2; stroke: #000000" x="520" y="60" width="20" height="20"/>
  </g>
  <g>
    <polyline style="fill: none; fill-opacity:0; stroke-width: 2; stroke: #000000" points="540,0 540,9 "/>
    <polygon style="fill: #000000" points="535,9 540,19 545,9 "/>
    <polygon style="fill: none; fill-opacity:0; stroke-width: 2; stroke: #000000" points="535,9 540,19 545,9 "/>
  </g>
  <text font-size="12.8" style="fill: #000000;text-anchor:middle;font-family:sans-serif;font-style:normal;font-weight:normal" x="370" y="34.425">
    <tspan x="370" y="34.425">9</tspan>
  </text>
  <text font-size="12.8" style="fill: #000000;text-anchor:middle;font-family:sans-serif;font-style:normal;font-weight:normal" x="450" y="34.425">
    <tspan x="450" y="34.425">5</tspan>
  </text>
  <text font-size="12.8" style="fill: #000000;text-anchor:middle;font-family:sans-serif;font-style:normal;font-weight:normal" x="410" y="34.425">
    <tspan x="410" y="34.425">7</tspan>
  </text>
  <text font-size="12.8" style="fill: #000000;text-anchor:middle;font-family:sans-serif;font-style:normal;font-weight:normal" x="410" y="74.425">
    <tspan x="410" y="74.425">8</tspan>
  </text>
  <text font-size="12.8" style="fill: #000000;text-anchor:middle;font-family:sans-serif;font-style:normal;font-weight:normal" x="530" y="34.425">
    <tspan x="530" y="34.425">1</tspan>
  </text>
  <text font-size="12.8" style="fill: #000000;text-anchor:middle;font-family:sans-serif;font-style:normal;font-weight:normal" x="490" y="74.425">
    <tspan x="490" y="74.425">4</tspan>
  </text>
  <text font-size="12.8" style="fill: #000000;text-anchor:middle;font-family:sans-serif;font-style:normal;font-weight:normal" x="490" y="34.425">
    <tspan x="490" y="34.425">3</tspan>
  </text>
  <text font-size="12.8" style="fill: #000000;text-anchor:middle;font-family:sans-serif;font-style:normal;font-weight:normal" x="530" y="74.425">
    <tspan x="530" y="74.425">2</tspan>
  </text>
  <text font-size="12.8" style="fill: #000000;text-anchor:middle;font-family:sans-serif;font-style:normal;font-weight:normal" x="450" y="74.425">
    <tspan x="450" y="74.425">6</tspan>
  </text>
  <text font-size="12.8" style="fill: #000000;text-anchor:middle;font-family:sans-serif;font-style:normal;font-weight:normal" x="330" y="34.425">
    <tspan x="330" y="34.425">11</tspan>
  </text>
  <text font-size="12.8" style="fill: #000000;text-anchor:middle;font-family:sans-serif;font-style:normal;font-weight:normal" x="330" y="74.425">
    <tspan x="330" y="74.425">12</tspan>
  </text>
  <text font-size="12.8" style="fill: #000000;text-anchor:middle;font-family:sans-serif;font-style:normal;font-weight:normal" x="370" y="74.425">
    <tspan x="370" y="74.425">10</tspan>
  </text>
  <text font-size="12.8" style="fill: #000000;text-anchor:start;font-family:sans-serif;font-style:normal;font-weight:700" x="420" y="-20">
    <tspan x="420" y="-20">SPI header (CN22)</tspan>
  </text>
  <g>
    <polyline style="fill: none; fill-opacity:0; stroke-width: 2; stroke: #000000" points="520,140 520,91 "/>
    <polygon style="fill: #000000" points="525,91 520,81 515,91 "/>
    <polygon style="fill: none; fill-opacity:0; stroke-width: 2; stroke: #000000" points="525,91 520,81 515,91 "/>
  </g>
  <g>
    <polyline style="fill: none; fill-opacity:0; stroke-width: 2; stroke: #000000" points="360,140 360,91 "/>
    <polygon style="fill: #000000" points="365,91 360,81 355,91 "/>
    <polygon style="fill: none; fill-opacity:0; stroke-width: 2; stroke: #000000" points="365,91 360,81 355,91 "/>
  </g>
  <text font-size="12.8" style="fill: #000000;text-anchor:middle;font-family:sans-serif;font-style:normal;font-weight:700" x="360" y="164.425">
    <tspan x="360" y="164.425">GND</tspan>
  </text>
  <text font-size="12.8" style="fill: #000000;text-anchor:middle;font-family:sans-serif;font-style:normal;font-weight:700" x="520" y="164.425">
    <tspan x="520" y="164.425">GND</tspan>
  </text>
  <g>
    <polyline style="fill: none; fill-opacity:0; stroke-width: 2; stroke: #000000" points="400,120 400,91 "/>
    <polygon style="fill: #000000" points="405,91 400,81 395,91 "/>
    <polygon style="fill: none; fill-opacity:0; stroke-width: 2; stroke: #000000" points="405,91 400,81 395,91 "/>
  </g>
  <text font-size="12.8" style="fill: #000000;text-anchor:middle;font-family:sans-serif;font-style:normal;font-weight:700" x="400" y="144.425">
    <tspan x="400" y="144.425">MISO</tspan>
  </text>
  <g>
    <polyline style="fill: none; fill-opacity:0; stroke-width: 2; stroke: #000000" points="480,120 480,91 "/>
    <polygon style="fill: #000000" points="485,91 480,81 475,91 "/>
    <polygon style="fill: none; fill-opacity:0; stroke-width: 2; stroke: #000000" points="485,91 480,81 475,91 "/>
  </g>
  <text font-size="12.8" style="fill: #000000;text-anchor:middle;font-family:sans-serif;font-style:normal;font-weight:700" x="480" y="136.425">
    <tspan x="480" y="136.425">VCC</tspan>
    <tspan x="480" y="152.425">1.8V</tspan>
  </text>
  <text font-size="12.8" style="fill: #000000;text-anchor:middle;font-family:sans-serif;font-style:normal;font-weight:700" x="320" y="144.425">
    <tspan x="320" y="144.425">#HOLD</tspan>
  </text>
  <g>
    <polyline style="fill: none; fill-opacity:0; stroke-width: 2; stroke: #000000" points="320,120 320,91 "/>
    <polygon style="fill: #000000" points="325,91 320,81 315,91 "/>
    <polygon style="fill: none; fill-opacity:0; stroke-width: 2; stroke: #000000" points="325,91 320,81 315,91 "/>
  </g>
  <g>
    <polyline style="fill: none; fill-opacity:0; stroke-width: 2; stroke: #000000" points="400,-40 400,9 "/>
    <polygon style="fill: #000000" points="395,9 400,19 405,9 "/>
    <polygon style="fill: none; fill-opacity:0; stroke-width: 2; stroke: #000000" points="395,9 400,19 405,9 "/>
  </g>
  <text font-size="12.8" style="fill: #000000;text-anchor:middle;font-family:sans-serif;font-style:normal;font-weight:700" x="400" y="-55.575">
    <tspan x="400" y="-55.575">CLK</tspan>
  </text>
  <g>
    <polyline style="fill: none; fill-opacity:0; stroke-width: 2; stroke: #000000" points="320,-20 320,9 "/>
    <polygon style="fill: #000000" points="315,9 320,19 325,9 "/>
    <polygon style="fill: none; fill-opacity:0; stroke-width: 2; stroke: #000000" points="315,9 320,19 325,9 "/>
  </g>
  <text font-size="12.8" style="fill: #000000;text-anchor:middle;font-family:sans-serif;font-style:normal;font-weight:700" x="320" y="-35.575">
    <tspan x="320" y="-35.575">MOSI</tspan>
  </text>
  <g>
    <line style="fill: none; fill-opacity:0; stroke-width: 2; stroke: #000000" x1="440" y1="140" x2="440" y2="91"/>
    <polygon style="fill: #000000" points="445,91 440,81 435,91 "/>
    <polygon style="fill: none; fill-opacity:0; stroke-width: 2; stroke: #000000" points="445,91 440,81 435,91 "/>
  </g>
  <text font-size="12.8" style="fill: #000000;text-anchor:middle;font-family:sans-serif;font-style:normal;font-weight:700" x="440" y="164.238">
    <tspan x="440" y="164.238">#CS</tspan>
  </text>
</svg>
