<?xml version="1.0" encoding="UTF-8" standalone="no"?>
<svg
   width="250"
   height="200"
   viewBox="0 0 250.00001 200"
   version="1.1"
   id="svg4"
   sodipodi:docname="coreboot_logo.svg"
   inkscape:version="1.1.2 (0a00cf5339, 2022-02-04)"
   xmlns:inkscape="http://www.inkscape.org/namespaces/inkscape"
   xmlns:sodipodi="http://sodipodi.sourceforge.net/DTD/sodipodi-0.dtd"
   xmlns="http://www.w3.org/2000/svg"
   xmlns:svg="http://www.w3.org/2000/svg">
  <defs
     id="defs8" />
  <sodipodi:namedview
     id="namedview6"
     pagecolor="#ffffff"
     bordercolor="#666666"
     borderopacity="1.0"
     inkscape:pageshadow="2"
     inkscape:pageopacity="0.0"
     inkscape:pagecheckerboard="true"
     showgrid="false"
     width="250px"
     height="200px"
     inkscape:zoom="1.464382"
     inkscape:cx="-62.825135"
     inkscape:cy="121.21154"
     inkscape:window-width="1519"
     inkscape:window-height="920"
     inkscape:window-x="209"
     inkscape:window-y="73"
     inkscape:window-maximized="0"
     inkscape:current-layer="svg4" />
  <path
     id="path61"
     d="m 80.661062,0.13961031 c 0,0 8.15178,6.60943399 23.247088,18.58954069 1.05796,0.880056 1.33191,1.294888 1.12373,1.641232 -0.31985,0.543174 -1.75582,-0.08872 -1.75582,-0.08872 -11.664048,-4.438128 -24.834388,-6.953649 -33.759848,-6.376408 -2.95434,0.189259 -3.90102,0.665956 -4.321175,1.508159 -0.19683,0.395552 -0.226549,1.460608 0.765169,2.779745 3.900636,5.157312 13.294036,15.263399 28.921176,24.855056 16.060528,9.852834 44.423978,23.830157 69.508388,34.990773 11.22686,4.992657 19.31714,11.666735 16.74132,19.3658 -2.87674,8.579122 -13.98099,9.747592 -22.85157,6.198982 C 151.07253,100.72135 144.33596,91.685794 133.39489,79.565635 114.43868,58.561649 105.44571,50.180157 73.988942,56.584689 58.21986,59.796417 43.339503,72.701794 31.438885,86.322779 23.497569,96.338376 19.677814,104.66948 18.527118,114.71536 c 0,0 -2.168556,-3.98066 -0.01478,-14.17227 3.764359,-17.803609 -4.428375,-25.450182 -4.428375,-25.450182 -41.49508,58.844472 17.526881,112.045702 63.024789,61.095232 0,0 -14.887006,33.05468 -13.647358,43.34849 -6.349646,2.08185 -9.170023,7.92269 0.332682,14.9707 10.382756,7.69907 35.885136,7.03371 56.001494,-1.61165 37.55849,-16.14193 60.9693,-46.22207 72.57279,-65.32401 2.71019,-4.46651 5.57763,-6.63885 7.56296,-7.34857 3.01112,-1.08635 23.72764,0.16234 33.42717,-5.3451 1.34942,0.65673 3.06678,1.00763 5.33032,0.8354 C 245.71787,115.17969 250,106.76795 250,106.76795 c 0,0 -8.87062,-16.922111 -30.12254,-29.55327 C 199.86141,65.319739 194.02789,69.457093 176.05582,55.128281 147.99814,32.763519 114.02178,7.3201044 80.661062,0.13961031 Z M 102.26692,70.594304 c 13.26505,-0.0029 23.37736,4.660953 25.1286,13.170519 2.97326,14.478329 -27.955978,50.936567 -25.92334,51.521377 0.19683,0.0549 0.6391,-0.16704 1.28637,-0.60991 10.15186,-13.28789 29.37687,-33.69148 36.58765,-32.90227 12.92072,1.41187 17.38079,18.53779 17.38079,18.53779 l -43.07864,38.86837 c 8.89707,2.41684 18.6275,3.29074 28.363,2.54317 -19.24009,13.70237 -40.10745,17.52487 -53.007358,11.85088 20.405928,-14.79629 57.956938,-51.80601 57.956938,-51.80601 0,0 -6.24718,-15.74184 -17.51757,-6.10287 -10.90133,9.32102 -20.97474,20.96607 -24.95486,24.68502 -2.46226,2.29571 -6.636458,6.63454 -9.104398,4.76844 -3.00355,-2.26922 5.935248,-22.37963 12.771298,-39.0458 9.32669,-22.730028 -1.40413,-29.828637 -13.965258,-29.198404 -11.25525,0.565885 -26.629956,7.384774 -37.644841,14.120509 -3.118992,1.909626 -5.249017,3.0833 -6.036334,2.354652 -0.688903,-0.641589 0.03892,-1.850245 2.084808,-3.578182 C 68.148932,76.592284 87.233202,70.597548 102.26692,70.594304 Z"
     style="stroke-width:1.89259;fill:#ffffff" />
</svg>
